<svg fill="none" height="25" viewBox="0 0 24 25" width="24" xmlns="http://www.w3.org/2000/svg"><path clip-rule="evenodd" d="m12 3.55273c-4.13414 0-7.81695 3.30734-8.83153 7.24927-.13766.5348-.68284.8568-1.21769.7192-.53486-.1377-.85684-.6829-.71918-1.2177 1.20563-4.68424 5.58335-8.75077 10.7684-8.75077 6.0751 0 11 4.92487 11 10.99997 0 6.0752-4.9249 11-11 11-5.32287 0-9.7607-3.7797-10.77998-8.801-.10986-.5413.23984-1.0691.78108-1.179.54125-.1098 1.06908.2399 1.17895.7811.8338 4.1076 4.46699 7.1989 8.81995 7.1989 4.9706 0 9-4.0294 9-9 0-4.97053-4.0294-8.99997-9-8.99997z" fill="#fff" fill-opacity=".45" fill-rule="evenodd"/><g stroke="#fff" stroke-opacity=".45" stroke-width="2"><circle cx="12" cy="12.5527" r="6"/><circle cx="12" cy="12.5527" r="1"/></g></svg>