<svg fill="none" height="25" viewBox="0 0 24 25" width="24" xmlns="http://www.w3.org/2000/svg"><path d="m3 12.5528v4c.00036.3507.09294.6951.26846.9988.17552.3036.4278.5558.73154.7312l7 4c.304.1755.6489.2679 1 .2679s.696-.0924 1-.2679l7-4c.3037-.1754.556-.4276.7315-.7312.1756-.3037.2681-.6481.2685-.9988v-8.00004c-.0004-.35073-.0929-.69519-.2685-.99884-.1755-.30365-.4278-.5558-.7315-.73116l-7-4c-.304-.17554-.6489-.26795-1-.26795s-.696.09241-1 .26795l-7 4c-.30374.17536-.55602.42751-.73154.73116s-.2681.64811-.26846.99884v1m12 3.00004c0 1.6568-1.3431 3-3 3s-3-1.3432-3-3c0-1.6569 1.3431-3.00004 3-3.00004s3 1.34314 3 3.00004z" stroke="#fff" stroke-linecap="round" stroke-linejoin="round" stroke-opacity=".45" stroke-width="2"/></svg>