<svg fill="none" height="25" viewBox="0 0 24 25" width="24" xmlns="http://www.w3.org/2000/svg"><g stroke="#fff" stroke-linecap="round" stroke-linejoin="round" stroke-opacity=".45" stroke-width="2"><path d="m12 11.5527c2.2091 0 4-1.79083 4-3.99997 0-2.20913-1.7909-4-4-4-2.20914 0-4 1.79087-4 4 0 2.20914 1.79086 3.99997 4 3.99997z"/><path d="m16.5 21.6949c1.388-.2499 2.4884-.6306 3-1.1422.0719-.6468 0-1.6666 0-1.6666 0-.8841-.4214-1.7319-1.1716-2.357-2.3689-1.9742-10.28787-1.9742-12.65682 0-.75015.6251-1.17158 1.4729-1.17158 2.357 0 0-.07187 1.0198 0 1.6666.51157.5116 1.61198.8923 3 1.1422"/></g></svg>