<svg fill="none" height="235" viewBox="0 0 256 235" width="256" xmlns="http://www.w3.org/2000/svg"><path d="m-308.435 5.30607c117.481-41.11137 72.467 224.46793 153.239 273.35893 98.0173 59.327 126.7378-237.8767 175.8733-167.734 63.9078 91.203 67.3314 81.59 178.7897 25.868 111.458-55.7216 191.533 75.645 191.533 75.645m-699.625-195.1208c120.841-35.7352 80.518 205.3038 159.642 255.5858 99.4125 63.185 128.133-230.16 177.7756-160.524 63.6542 89.623 62.8934 90.129 173.9074 33.332 111.459-57.1763 187.666 69.257 187.666 69.257m-699.245-185.6969c124.138-30.3591 88.507 186.2659 166.046 237.8769 100.8706 67.106 129.6545-222.4443 179.6776-153.314 63.4004 88.105 58.5187 98.73 169.0894 40.795 111.458-58.5678 183.735 62.869 183.735 62.869m-698.738-176.2097c127.435-24.9198 96.432 167.2917 172.449 220.1037 102.2656 71.028 131.23971-214.7909 181.5798-146.167 63.3372 86.397 54.1441 107.269 164.2712 48.322 111.458-60.022 179.867 56.481 179.867 56.481m-698.421-166.7858c130.796-19.5437 104.358 148.4438 178.853 202.3938 103.6603 75.076 132.82452-207.1374 183.545-138.956 63.084 84.816 49.769 115.871 159.389 55.785 111.458-61.477 176 50.156 176 50.156m-697.977-157.3616c134.092-14.1676 112.219 129.5956 185.193 184.6216 105.1184 79.187 134.3461-199.4217 185.447-131.746 62.893 83.235 45.395 124.409 154.571 63.248 111.458-62.869 172.069 43.768 172.069 43.768m-697.47-147.9377c137.389-8.7915 120.081 110.8107 191.596 166.8487 106.3866 83.424 135.8044-191.642 187.3491-124.472 62.7029 81.653 41.0199 132.947 149.7519 70.774 111.459-64.323 168.202 37.38 168.202 37.38m-697.153-138.5136c140.686-3.4154 127.943 92.0896 198 149.1396 107.71785 87.598 137.3259-183.9893 189.251-117.326 62.45 80.072 36.646 141.55 144.87 78.238 111.459-65.778 164.335 30.992 164.335 30.992m-696.646-129.09c143.983 2.024 135.741 73.432 204.404 131.367 108.98521 91.963 138.7835-176.2096 191.1524-110.115 62.1956 78.554 32.3976 150.341 140.0516 85.701 111.585-66.98 160.467 24.604 160.467 24.604m-696.329-119.54c147.343 7.401 143.476 54.773 210.8074 113.594 110.2536 96.327 140.3054-168.4929 193.1181-102.905 61.9425 76.973 28.0235 158.88 135.1705 93.228 111.585-68.371 156.536 18.216 156.536 18.216m-695.822-110.179c150.64 12.777 151.211 36.178 217.2107 95.885 111.3948 100.754 141.7637-160.714 194.9563-95.695 61.753 75.392 23.649 167.418 130.352 100.691 111.585-69.826 152.669 11.828 152.669 11.828m-695.441-100.691c153.936 18.152 158.882 17.646 223.6135 78.174 112.4727 105.245 143.222-153.0603 196.8585-88.547 61.436 73.874 19.274 176.02 125.534 108.154 111.585-71.217 148.801 5.44 148.801 5.44m-694.998-91.268c157.234 23.529 166.554-.885 230.0178 60.403 113.5505 109.798 144.6802-145.2816 198.7612-81.338 61.245 72.356 14.899 184.622 120.715 115.681 111.585-72.672 144.87-.948 144.87-.948m-694.554-81.78c160.594 28.967 174.225-19.418 236.421 42.629 114.5648 114.353 146.1383-137.5649 200.726-74.127 60.928 70.775 10.525 193.097 115.833 123.144 111.522-74.127 141.003-7.337 141.003-7.337m-694.236-72.355c163.89 34.343 181.833-37.886 242.8239 24.919 115.5159 118.97 147.5966-129.785 202.6281-66.916 60.611 69.257 6.023 201.445 111.015 130.607 111.395-75.771 137.135-13.725 137.135-13.725m-693.793-62.868c167.188 39.72 189.378-56.354 249.1649 7.147 116.4035 123.713 149.0548-122.006 204.5301-59.707 60.358 67.739 1.649 210.048 106.133 138.071 111.395-77.226 133.205-20.049 133.205-20.049m-693.286-53.508c170.484 45.096 196.922-74.823 255.5676-10.563 117.1643 128.394 150.4496-114.2894 206.4324-52.559 60.04 66.221-2.79 218.586 101.314 145.597 111.395-78.617 129.337-26.437 129.337-26.437m-692.841-44.021c173.844 50.472 204.467-93.291 261.9709-28.335 117.9251 133.2 151.9081-106.5104 208.3341-45.349 59.724 64.703-7.164 227.187 96.496 153.06 111.395-80.072 125.47-32.826 125.47-32.826m-692.462-34.533c177.142 55.911 212.012-111.696 268.3751-46.045 118.5591 138.008 153.3029-98.7302 210.2359-38.138 59.407 63.248-11.539 235.726 91.614 160.523 111.395-81.526 121.603-39.213 121.603-39.213m-692.081-25.173c180.438 61.287 219.4926-130.165 274.7779-63.818 119.1297 142.878 154.6971-90.9505 212.1381-30.928 59.09 61.73-15.913 244.264 86.796 168.05 111.331-82.918 117.671-45.601 117.671-45.601m-691.573-15.686c183.735 66.6 226.9103-148.57 281.1812-81.59 119.6369 147.748 156.0288-83.0451 214.1038-23.718 58.709 60.339-20.288 252.866 81.977 175.513 111.331-84.373 113.804-51.99 113.804-51.99m-691.32-6.261c187.095 72.04 234.3286-166.9753 287.5851-99.3 120.0808 152.681 157.5509-75.3284 216.0059-16.571 58.455 58.758-24.663 261.468 77.095 183.04 111.332-85.764 109.937-58.378 109.937-58.378" opacity=".1" stroke="#fff" stroke-miterlimit="10" stroke-width=".75"/></svg>