<svg fill="none" height="24" viewBox="0 0 24 24" width="24" xmlns="http://www.w3.org/2000/svg" xmlns:xlink="http://www.w3.org/1999/xlink"><clipPath id="a"><path d="m0 0h24v24h-24z"/></clipPath><g clip-path="url(#a)"><g fill="#2a5f9e"><path d="m8.24995 22.6125v-5.175l-3.8625 2.85c1.0875 1.0125 2.4 1.8 3.8625 2.325z"/><path d="m15.75 22.6125c1.4625-.525 2.775-1.3125 3.8625-2.325l-3.8625-2.8875z"/><path d="m1.38745 15.75c.1125.375.2625.7125.45 1.0875l1.4625-1.0875z"/><path d="m20.7 15.75 1.4625 1.0875c.15-.3375.3-.7125.45-1.0875z"/></g><path d="m8.81248 14.25h-7.837504c.112504.525.262504 1.0125.412504 1.5h1.9125l-1.4625 1.0875c.3.6375.6375 1.2 1.05 1.7625l3.8625-2.85h1.5v.75l-4.3875 3.225.525.525 3.8625-2.8125v5.175c.4875.1875.975.3 1.5.4125v-8.775z" fill="#fff"/><path d="m23.025 14.25h-8.775v8.775c.525-.1125 1.0125-.2625 1.5-.4125v-5.175l3.8625 2.8125c.525-.4875.975-1.0125 1.425-1.575l-4.0125-2.925h2.55l2.2875 1.6875c.1125-.1875.225-.4125.3-.6l-1.4625-1.0875h1.9125c.15-.4875.3-.975.4125-1.5z" fill="#fff"/><path d="m2.88745 18.6c.3.4125.6.7875.9375 1.1625l4.425-3.225v-.75h-1.5z" fill="#ed4c5c"/><path d="m17.0625 15.75 4.0125 2.925c.15-.1875.2625-.375.4125-.5625.0375-.0375.0375-.075.075-.075.1125-.1875.2625-.4125.375-.6l-2.3625-1.6875z" fill="#ed4c5c"/><path d="m15.75 1.38745v5.175l3.8625-2.85c-1.0875-1.0125-2.4-1.8-3.8625-2.325z" fill="#2a5f9e"/><path d="m8.24995 1.38745c-1.4625.525-2.775 1.3125-3.8625 2.325l3.8625 2.8875z" fill="#2a5f9e"/><path d="m22.6125 8.24998c-.1125-.375-.2625-.7125-.45-1.0875l-1.4625 1.0875z" fill="#2a5f9e"/><path d="m3.29995 8.24998-1.4625-1.0875c-.15.375-.3.7125-.45 1.0875z" fill="#2a5f9e"/><path d="m15.1875 9.74998h7.8c-.1125-.525-.2625-1.0125-.4125-1.5h-1.9125l1.4625-1.0875c-.3-.6375-.6375-1.2-1.05-1.7625l-3.825 2.85h-1.5v-.75l4.3875-3.225-.525-.525-3.8625 2.8125v-5.175c-.4875-.1875-.975-.3-1.5-.412504v8.775004z" fill="#fff"/><path d="m.974976 9.74998h8.775004v-8.775004c-.525.112504-1.0125.262504-1.5.412504v5.175l-3.8625-2.8125c-.525.4875-.975 1.0125-1.425 1.575l4.0125 2.925h-2.55l-2.2875-1.6875c-.1125.1875-.225.4125-.3.6l1.4625 1.0875h-1.9125c-.15.4875-.3.975-.412504 1.5z" fill="#fff"/><path d="m21.1125 5.40005c-.3-.4125-.6-.7875-.9375-1.1625l-4.425 3.225v.75h1.5z" fill="#ed4c5c"/><path d="m6.93748 8.24995-3.975-2.925c-.15.1875-.2625.375-.4125.5625-.0375.0375-.0375.075-.075.075-.1125.1875-.2625.4125-.375.6l2.2875 1.6875z" fill="#ed4c5c"/><path d="m23.025 9.75h-8.775v-8.775c-.7125-.15-1.4625-.225-2.25-.225s-1.5375.075-2.25.225v8.775h-8.775c-.15.7125-.225 1.4625-.225 2.25s.075 1.5375.225 2.25h8.775v8.775c.7125.15 1.4625.225 2.25.225s1.5375-.075 2.25-.225v-8.775h8.775c.15-.7125.225-1.4625.225-2.25s-.075-1.5375-.225-2.25z" fill="#ed4c5c"/></g></svg>